<?xml version="1.0" standalone="no"?>
<!DOCTYPE svg PUBLIC "-//W3C//DTD SVG 20010904//EN"
 "http://www.w3.org/TR/2001/REC-SVG-20010904/DTD/svg10.dtd">
<svg version="1.0" xmlns="http://www.w3.org/2000/svg"
 width="1102.000000pt" height="1280.000000pt" viewBox="0 0 1102.000000 1280.000000"
 preserveAspectRatio="xMidYMid meet">
<metadata>
Created by potrace 1.15, written by Peter Selinger 2001-2017
</metadata>
<g transform="translate(0.000000,1280.000000) scale(0.100000,-0.100000)"
fill="#000000" stroke="none">
<path d="M1290 12776 c-495 -149 -810 -385 -976 -731 -226 -469 -127 -1027
291 -1655 121 -182 238 -323 420 -509 275 -280 549 -511 935 -786 l95 -67 -85
6 c-253 19 -537 78 -680 140 -99 43 -151 79 -270 186 -119 109 -163 137 -381
242 -199 96 -296 155 -387 237 -125 110 -177 151 -194 151 -10 0 -25 -15 -35
-32 -27 -50 -25 -327 4 -460 53 -242 131 -324 440 -458 391 -169 556 -277 619
-406 23 -47 26 -64 22 -117 -7 -81 -30 -125 -171 -325 -64 -90 -142 -209 -175
-265 -562 -964 -701 -2208 -366 -3272 278 -884 858 -1673 1819 -2476 499 -416
1208 -898 2085 -1414 102 -60 313 -192 470 -294 350 -226 661 -421 718 -450
l42 -21 39 19 c38 20 566 370 1156 768 171 115 409 269 530 343 1684 1024
2619 1899 3135 2932 312 626 450 1297 411 1997 -24 420 -88 761 -212 1134
-122 365 -305 729 -492 979 -144 194 -187 276 -187 361 0 75 18 115 80 181 94
99 223 175 520 306 218 96 311 150 368 215 85 97 128 244 138 475 7 142 -5
243 -30 268 -22 22 -49 7 -163 -94 -145 -127 -211 -170 -431 -276 -231 -113
-264 -133 -392 -248 -124 -111 -197 -160 -299 -199 -163 -63 -340 -95 -741
-136 -444 -45 -618 -80 -853 -174 -118 -47 -204 -93 -323 -172 -168 -112 -321
-273 -629 -659 -300 -375 -396 -485 -500 -569 -130 -104 -256 -165 -560 -271
-204 -71 -238 -88 -255 -131 -26 -62 37 -186 155 -305 196 -200 427 -269 940
-281 451 -11 704 22 1280 162 329 81 351 85 419 85 121 0 173 -32 402 -243
483 -447 675 -755 691 -1112 19 -405 -141 -885 -454 -1360 -239 -363 -603
-793 -950 -1121 -466 -441 -936 -837 -1448 -1220 -110 -82 -328 -246 -485
-365 -265 -201 -880 -656 -907 -672 -13 -8 -203 130 -873 633 -1319 991 -2040
1625 -2576 2265 -537 640 -813 1246 -814 1781 0 225 100 503 278 769 220 330
490 548 761 616 128 32 227 24 486 -40 618 -153 782 -176 1245 -176 257 1 349
4 440 18 303 46 474 124 614 279 107 118 160 230 136 287 -17 43 -51 60 -255
131 -481 167 -579 239 -923 670 -321 402 -385 480 -441 542 -74 80 -88 72 154
88 489 32 794 116 1035 285 218 153 309 339 280 570 -16 122 -90 352 -120 370
-13 8 -15 -1 -29 -108 -21 -162 -82 -294 -185 -405 -121 -129 -272 -220 -494
-296 -182 -63 -186 -58 -138 136 19 79 52 215 72 303 85 376 194 605 374 786
85 86 168 145 273 195 125 59 181 69 375 69 l174 0 -35 30 c-97 84 -311 179
-455 203 -84 14 -101 14 -183 0 -253 -45 -499 -257 -676 -583 -96 -178 -151
-319 -259 -670 -36 -115 -80 -243 -99 -283 -64 -135 -180 -229 -324 -262 -110
-26 -308 -1 -471 58 -292 106 -611 345 -692 518 -26 57 -32 81 -35 163 -4 84
-1 111 27 216 39 153 94 267 164 342 103 111 198 143 611 203 296 44 498 84
605 120 251 86 370 234 370 458 0 96 -12 95 -65 -7 -51 -99 -91 -139 -180
-184 -122 -60 -260 -80 -555 -80 -182 0 -232 3 -262 16 -21 9 -38 22 -38 29 0
22 33 68 116 163 108 124 148 180 190 269 65 136 58 273 -19 421 -47 90 -214
252 -362 352 -123 82 -220 137 -235 131 -5 -2 30 -50 76 -106 144 -178 201
-294 211 -435 11 -145 -42 -264 -168 -382 -36 -33 -125 -109 -199 -170 -327
-266 -425 -425 -485 -785 -37 -227 -65 -301 -120 -327 -92 -44 -243 72 -338
260 -60 120 -100 260 -186 640 -113 497 -116 515 -115 697 1 175 18 261 78
385 63 133 136 213 338 368 135 104 143 117 79 117 -85 0 -332 -96 -450 -174
-246 -164 -341 -404 -328 -831 7 -231 31 -349 132 -641 68 -197 85 -264 70
-264 -65 0 -322 394 -443 680 -167 392 -142 729 79 1056 121 180 286 355 465
494 258 199 270 211 222 209 -13 0 -57 -11 -98 -23z"/>
</g>
</svg>
